<?xml version="1.0" encoding="utf-8" standalone="no"?>
<!DOCTYPE svg PUBLIC "-//W3C//DTD SVG 1.1//EN"
  "http://www.w3.org/Graphics/SVG/1.1/DTD/svg11.dtd">
<svg height="288pt" version="1.1" viewBox="0 0 1080 288" width="1080pt" xmlns="http://www.w3.org/2000/svg" xmlns:xlink="http://www.w3.org/1999/xlink">
 <metadata>
  <rdf:RDF xmlns:cc="http://creativecommons.org/ns#" xmlns:dc="http://purl.org/dc/elements/1.1/" xmlns:rdf="http://www.w3.org/1999/02/22-rdf-syntax-ns#">
   <cc:Work>
    <dc:type rdf:resource="http://purl.org/dc/dcmitype/StillImage"/>
    <dc:date>2023-03-08T11:47:39.454030</dc:date>
    <dc:format>image/svg+xml</dc:format>
    <dc:creator>
     <cc:Agent>
      <dc:title>Matplotlib v3.4.3, https://matplotlib.org/</dc:title>
     </cc:Agent>
    </dc:creator>
   </cc:Work>
  </rdf:RDF>
 </metadata>
 <defs>
  <style type="text/css">*{stroke-linecap:butt;stroke-linejoin:round;}</style>
 </defs>
 <g id="figure_1">
  <g id="patch_1">
   <path d="M 0 288 
L 1080 288 
L 1080 0 
L 0 0 
z
" style="fill:#f0f0f0;"/>
  </g>
  <g id="axes_1">
   <g id="patch_2">
    <path d="M 28.24 255.8 
L 1064.88 255.8 
L 1064.88 43.92 
L 28.24 43.92 
z
" style="fill:#f0f0f0;"/>
   </g>
   <g id="matplotlib.axis_1">
    <g id="xtick_1">
     <g id="text_1">
      <!-- Gewicht in kg -->
      <g style="fill:#262626;" transform="translate(254.387969 270.807656)scale(0.11 -0.11)">
       <defs>
        <path d="M 2638 1797 
L 2638 2334 
L 4578 2338 
L 4578 638 
Q 4131 281 3656 101 
Q 3181 -78 2681 -78 
Q 2006 -78 1454 211 
Q 903 500 622 1047 
Q 341 1594 341 2269 
Q 341 2938 620 3517 
Q 900 4097 1425 4378 
Q 1950 4659 2634 4659 
Q 3131 4659 3532 4498 
Q 3934 4338 4162 4050 
Q 4391 3763 4509 3300 
L 3963 3150 
Q 3859 3500 3706 3700 
Q 3553 3900 3268 4020 
Q 2984 4141 2638 4141 
Q 2222 4141 1919 4014 
Q 1616 3888 1430 3681 
Q 1244 3475 1141 3228 
Q 966 2803 966 2306 
Q 966 1694 1177 1281 
Q 1388 869 1791 669 
Q 2194 469 2647 469 
Q 3041 469 3416 620 
Q 3791 772 3984 944 
L 3984 1797 
L 2638 1797 
z
" id="ArialMT-47" transform="scale(0.015625)"/>
        <path d="M 2694 1069 
L 3275 997 
Q 3138 488 2766 206 
Q 2394 -75 1816 -75 
Q 1088 -75 661 373 
Q 234 822 234 1631 
Q 234 2469 665 2931 
Q 1097 3394 1784 3394 
Q 2450 3394 2872 2941 
Q 3294 2488 3294 1666 
Q 3294 1616 3291 1516 
L 816 1516 
Q 847 969 1125 678 
Q 1403 388 1819 388 
Q 2128 388 2347 550 
Q 2566 713 2694 1069 
z
M 847 1978 
L 2700 1978 
Q 2663 2397 2488 2606 
Q 2219 2931 1791 2931 
Q 1403 2931 1139 2672 
Q 875 2413 847 1978 
z
" id="ArialMT-65" transform="scale(0.015625)"/>
        <path d="M 1034 0 
L 19 3319 
L 600 3319 
L 1128 1403 
L 1325 691 
Q 1338 744 1497 1375 
L 2025 3319 
L 2603 3319 
L 3100 1394 
L 3266 759 
L 3456 1400 
L 4025 3319 
L 4572 3319 
L 3534 0 
L 2950 0 
L 2422 1988 
L 2294 2553 
L 1622 0 
L 1034 0 
z
" id="ArialMT-77" transform="scale(0.015625)"/>
        <path d="M 425 3934 
L 425 4581 
L 988 4581 
L 988 3934 
L 425 3934 
z
M 425 0 
L 425 3319 
L 988 3319 
L 988 0 
L 425 0 
z
" id="ArialMT-69" transform="scale(0.015625)"/>
        <path d="M 2588 1216 
L 3141 1144 
Q 3050 572 2676 248 
Q 2303 -75 1759 -75 
Q 1078 -75 664 370 
Q 250 816 250 1647 
Q 250 2184 428 2587 
Q 606 2991 970 3192 
Q 1334 3394 1763 3394 
Q 2303 3394 2647 3120 
Q 2991 2847 3088 2344 
L 2541 2259 
Q 2463 2594 2264 2762 
Q 2066 2931 1784 2931 
Q 1359 2931 1093 2626 
Q 828 2322 828 1663 
Q 828 994 1084 691 
Q 1341 388 1753 388 
Q 2084 388 2306 591 
Q 2528 794 2588 1216 
z
" id="ArialMT-63" transform="scale(0.015625)"/>
        <path d="M 422 0 
L 422 4581 
L 984 4581 
L 984 2938 
Q 1378 3394 1978 3394 
Q 2347 3394 2619 3248 
Q 2891 3103 3008 2847 
Q 3125 2591 3125 2103 
L 3125 0 
L 2563 0 
L 2563 2103 
Q 2563 2525 2380 2717 
Q 2197 2909 1863 2909 
Q 1613 2909 1392 2779 
Q 1172 2650 1078 2428 
Q 984 2206 984 1816 
L 984 0 
L 422 0 
z
" id="ArialMT-68" transform="scale(0.015625)"/>
        <path d="M 1650 503 
L 1731 6 
Q 1494 -44 1306 -44 
Q 1000 -44 831 53 
Q 663 150 594 308 
Q 525 466 525 972 
L 525 2881 
L 113 2881 
L 113 3319 
L 525 3319 
L 525 4141 
L 1084 4478 
L 1084 3319 
L 1650 3319 
L 1650 2881 
L 1084 2881 
L 1084 941 
Q 1084 700 1114 631 
Q 1144 563 1211 522 
Q 1278 481 1403 481 
Q 1497 481 1650 503 
z
" id="ArialMT-74" transform="scale(0.015625)"/>
        <path id="ArialMT-20" transform="scale(0.015625)"/>
        <path d="M 422 0 
L 422 3319 
L 928 3319 
L 928 2847 
Q 1294 3394 1984 3394 
Q 2284 3394 2536 3286 
Q 2788 3178 2913 3003 
Q 3038 2828 3088 2588 
Q 3119 2431 3119 2041 
L 3119 0 
L 2556 0 
L 2556 2019 
Q 2556 2363 2490 2533 
Q 2425 2703 2258 2804 
Q 2091 2906 1866 2906 
Q 1506 2906 1245 2678 
Q 984 2450 984 1813 
L 984 0 
L 422 0 
z
" id="ArialMT-6e" transform="scale(0.015625)"/>
        <path d="M 425 0 
L 425 4581 
L 988 4581 
L 988 1969 
L 2319 3319 
L 3047 3319 
L 1778 2088 
L 3175 0 
L 2481 0 
L 1384 1697 
L 988 1316 
L 988 0 
L 425 0 
z
" id="ArialMT-6b" transform="scale(0.015625)"/>
        <path d="M 319 -275 
L 866 -356 
Q 900 -609 1056 -725 
Q 1266 -881 1628 -881 
Q 2019 -881 2231 -725 
Q 2444 -569 2519 -288 
Q 2563 -116 2559 434 
Q 2191 0 1641 0 
Q 956 0 581 494 
Q 206 988 206 1678 
Q 206 2153 378 2554 
Q 550 2956 876 3175 
Q 1203 3394 1644 3394 
Q 2231 3394 2613 2919 
L 2613 3319 
L 3131 3319 
L 3131 450 
Q 3131 -325 2973 -648 
Q 2816 -972 2473 -1159 
Q 2131 -1347 1631 -1347 
Q 1038 -1347 672 -1080 
Q 306 -813 319 -275 
z
M 784 1719 
Q 784 1066 1043 766 
Q 1303 466 1694 466 
Q 2081 466 2343 764 
Q 2606 1063 2606 1700 
Q 2606 2309 2336 2618 
Q 2066 2928 1684 2928 
Q 1309 2928 1046 2623 
Q 784 2319 784 1719 
z
" id="ArialMT-67" transform="scale(0.015625)"/>
       </defs>
       <use xlink:href="#ArialMT-47"/>
       <use x="77.783203" xlink:href="#ArialMT-65"/>
       <use x="133.398438" xlink:href="#ArialMT-77"/>
       <use x="205.615234" xlink:href="#ArialMT-69"/>
       <use x="227.832031" xlink:href="#ArialMT-63"/>
       <use x="277.832031" xlink:href="#ArialMT-68"/>
       <use x="333.447266" xlink:href="#ArialMT-74"/>
       <use x="361.230469" xlink:href="#ArialMT-20"/>
       <use x="389.013672" xlink:href="#ArialMT-69"/>
       <use x="411.230469" xlink:href="#ArialMT-6e"/>
       <use x="466.845703" xlink:href="#ArialMT-20"/>
       <use x="494.628906" xlink:href="#ArialMT-6b"/>
       <use x="544.628906" xlink:href="#ArialMT-67"/>
      </g>
     </g>
    </g>
    <g id="xtick_2">
     <g id="text_2">
      <!-- Gewicht in t -->
      <g style="fill:#262626;" transform="translate(776.988516 270.673594)scale(0.11 -0.11)">
       <use xlink:href="#ArialMT-47"/>
       <use x="77.783203" xlink:href="#ArialMT-65"/>
       <use x="133.398438" xlink:href="#ArialMT-77"/>
       <use x="205.615234" xlink:href="#ArialMT-69"/>
       <use x="227.832031" xlink:href="#ArialMT-63"/>
       <use x="277.832031" xlink:href="#ArialMT-68"/>
       <use x="333.447266" xlink:href="#ArialMT-74"/>
       <use x="361.230469" xlink:href="#ArialMT-20"/>
       <use x="389.013672" xlink:href="#ArialMT-69"/>
       <use x="411.230469" xlink:href="#ArialMT-6e"/>
       <use x="466.845703" xlink:href="#ArialMT-20"/>
       <use x="494.628906" xlink:href="#ArialMT-74"/>
      </g>
     </g>
    </g>
   </g>
   <g id="matplotlib.axis_2">
    <g id="ytick_1">
     <g id="line2d_1">
      <path clip-path="url(#pb186d4b6dc)" d="M 28.24 234.240287 
L 1064.88 234.240287 
" style="fill:none;stroke:#cbcbcb;"/>
     </g>
     <g id="text_3">
      <!-- 0 -->
      <g style="fill:#262626;" transform="translate(15.122969 238.177084)scale(0.11 -0.11)">
       <defs>
        <path d="M 266 2259 
Q 266 3072 433 3567 
Q 600 4063 929 4331 
Q 1259 4600 1759 4600 
Q 2128 4600 2406 4451 
Q 2684 4303 2865 4023 
Q 3047 3744 3150 3342 
Q 3253 2941 3253 2259 
Q 3253 1453 3087 958 
Q 2922 463 2592 192 
Q 2263 -78 1759 -78 
Q 1097 -78 719 397 
Q 266 969 266 2259 
z
M 844 2259 
Q 844 1131 1108 757 
Q 1372 384 1759 384 
Q 2147 384 2411 759 
Q 2675 1134 2675 2259 
Q 2675 3391 2411 3762 
Q 2147 4134 1753 4134 
Q 1366 4134 1134 3806 
Q 844 3388 844 2259 
z
" id="ArialMT-30" transform="scale(0.015625)"/>
       </defs>
       <use xlink:href="#ArialMT-30"/>
      </g>
     </g>
    </g>
    <g id="ytick_2">
     <g id="line2d_2">
      <path clip-path="url(#pb186d4b6dc)" d="M 28.24 192.357135 
L 1064.88 192.357135 
" style="fill:none;stroke:#cbcbcb;"/>
     </g>
     <g id="text_4">
      <!-- 2 -->
      <g style="fill:#262626;" transform="translate(15.122969 196.293932)scale(0.11 -0.11)">
       <defs>
        <path d="M 3222 541 
L 3222 0 
L 194 0 
Q 188 203 259 391 
Q 375 700 629 1000 
Q 884 1300 1366 1694 
Q 2113 2306 2375 2664 
Q 2638 3022 2638 3341 
Q 2638 3675 2398 3904 
Q 2159 4134 1775 4134 
Q 1369 4134 1125 3890 
Q 881 3647 878 3216 
L 300 3275 
Q 359 3922 746 4261 
Q 1134 4600 1788 4600 
Q 2447 4600 2831 4234 
Q 3216 3869 3216 3328 
Q 3216 3053 3103 2787 
Q 2991 2522 2730 2228 
Q 2469 1934 1863 1422 
Q 1356 997 1212 845 
Q 1069 694 975 541 
L 3222 541 
z
" id="ArialMT-32" transform="scale(0.015625)"/>
       </defs>
       <use xlink:href="#ArialMT-32"/>
      </g>
     </g>
    </g>
    <g id="ytick_3">
     <g id="line2d_3">
      <path clip-path="url(#pb186d4b6dc)" d="M 28.24 150.473983 
L 1064.88 150.473983 
" style="fill:none;stroke:#cbcbcb;"/>
     </g>
     <g id="text_5">
      <!-- 4 -->
      <g style="fill:#262626;" transform="translate(15.122969 154.41078)scale(0.11 -0.11)">
       <defs>
        <path d="M 2069 0 
L 2069 1097 
L 81 1097 
L 81 1613 
L 2172 4581 
L 2631 4581 
L 2631 1613 
L 3250 1613 
L 3250 1097 
L 2631 1097 
L 2631 0 
L 2069 0 
z
M 2069 1613 
L 2069 3678 
L 634 1613 
L 2069 1613 
z
" id="ArialMT-34" transform="scale(0.015625)"/>
       </defs>
       <use xlink:href="#ArialMT-34"/>
      </g>
     </g>
    </g>
    <g id="ytick_4">
     <g id="line2d_4">
      <path clip-path="url(#pb186d4b6dc)" d="M 28.24 108.590831 
L 1064.88 108.590831 
" style="fill:none;stroke:#cbcbcb;"/>
     </g>
     <g id="text_6">
      <!-- 6 -->
      <g style="fill:#262626;" transform="translate(15.122969 112.527627)scale(0.11 -0.11)">
       <defs>
        <path d="M 3184 3459 
L 2625 3416 
Q 2550 3747 2413 3897 
Q 2184 4138 1850 4138 
Q 1581 4138 1378 3988 
Q 1113 3794 959 3422 
Q 806 3050 800 2363 
Q 1003 2672 1297 2822 
Q 1591 2972 1913 2972 
Q 2475 2972 2870 2558 
Q 3266 2144 3266 1488 
Q 3266 1056 3080 686 
Q 2894 316 2569 119 
Q 2244 -78 1831 -78 
Q 1128 -78 684 439 
Q 241 956 241 2144 
Q 241 3472 731 4075 
Q 1159 4600 1884 4600 
Q 2425 4600 2770 4297 
Q 3116 3994 3184 3459 
z
M 888 1484 
Q 888 1194 1011 928 
Q 1134 663 1356 523 
Q 1578 384 1822 384 
Q 2178 384 2434 671 
Q 2691 959 2691 1453 
Q 2691 1928 2437 2201 
Q 2184 2475 1800 2475 
Q 1419 2475 1153 2201 
Q 888 1928 888 1484 
z
" id="ArialMT-36" transform="scale(0.015625)"/>
       </defs>
       <use xlink:href="#ArialMT-36"/>
      </g>
     </g>
    </g>
    <g id="ytick_5">
     <g id="line2d_5">
      <path clip-path="url(#pb186d4b6dc)" d="M 28.24 66.707678 
L 1064.88 66.707678 
" style="fill:none;stroke:#cbcbcb;"/>
     </g>
     <g id="text_7">
      <!-- 8 -->
      <g style="fill:#262626;" transform="translate(15.122969 70.644475)scale(0.11 -0.11)">
       <defs>
        <path d="M 1131 2484 
Q 781 2613 612 2850 
Q 444 3088 444 3419 
Q 444 3919 803 4259 
Q 1163 4600 1759 4600 
Q 2359 4600 2725 4251 
Q 3091 3903 3091 3403 
Q 3091 3084 2923 2848 
Q 2756 2613 2416 2484 
Q 2838 2347 3058 2040 
Q 3278 1734 3278 1309 
Q 3278 722 2862 322 
Q 2447 -78 1769 -78 
Q 1091 -78 675 323 
Q 259 725 259 1325 
Q 259 1772 486 2073 
Q 713 2375 1131 2484 
z
M 1019 3438 
Q 1019 3113 1228 2906 
Q 1438 2700 1772 2700 
Q 2097 2700 2305 2904 
Q 2513 3109 2513 3406 
Q 2513 3716 2298 3927 
Q 2084 4138 1766 4138 
Q 1444 4138 1231 3931 
Q 1019 3725 1019 3438 
z
M 838 1322 
Q 838 1081 952 856 
Q 1066 631 1291 507 
Q 1516 384 1775 384 
Q 2178 384 2440 643 
Q 2703 903 2703 1303 
Q 2703 1709 2433 1975 
Q 2163 2241 1756 2241 
Q 1359 2241 1098 1978 
Q 838 1716 838 1322 
z
" id="ArialMT-38" transform="scale(0.015625)"/>
       </defs>
       <use xlink:href="#ArialMT-38"/>
      </g>
     </g>
    </g>
   </g>
   <g id="PolyCollection_1">
    <defs>
     <path d="M 307.56721 -41.830909 
L 267.23279 -41.830909 
L 234.423656 -43.776547 
L 179.730247 -45.722185 
L 117.84424 -47.667824 
L 80.072 -49.613462 
L 89.896801 -51.5591 
L 139.981148 -53.504738 
L 200.220519 -55.450376 
L 245.545806 -57.396015 
L 270.091083 -59.341653 
L 280.298642 -61.287291 
L 283.721477 -63.232929 
L 284.581477 -65.178567 
L 284.467199 -67.124206 
L 283.944348 -69.069844 
L 283.421848 -71.015482 
L 283.284467 -72.96112 
L 283.711692 -74.906758 
L 284.578 -76.852397 
L 285.57183 -78.798035 
L 286.406361 -80.743673 
L 286.952126 -82.689311 
L 287.23472 -84.634949 
L 287.350674 -86.580588 
L 287.388221 -88.526226 
L 287.397769 -90.471864 
L 287.399667 -92.417502 
L 287.399961 -94.36314 
L 287.399996 -96.308779 
L 287.4 -98.254417 
L 287.4 -100.200055 
L 287.4 -102.145693 
L 287.4 -104.091331 
L 287.4 -106.03697 
L 287.4 -107.982608 
L 287.4 -109.928246 
L 287.4 -111.873884 
L 287.4 -113.819522 
L 287.4 -115.765161 
L 287.4 -117.710799 
L 287.4 -119.656437 
L 287.4 -121.602075 
L 287.4 -123.547713 
L 287.4 -125.493352 
L 287.4 -127.43899 
L 287.4 -129.384628 
L 287.4 -131.330266 
L 287.4 -133.275904 
L 287.4 -135.221543 
L 287.4 -137.167181 
L 287.4 -139.112819 
L 287.4 -141.058457 
L 287.4 -143.004096 
L 287.4 -144.949734 
L 287.4 -146.895372 
L 287.4 -148.84101 
L 287.4 -150.786648 
L 287.4 -152.732287 
L 287.4 -154.677925 
L 287.4 -156.623563 
L 287.4 -158.569201 
L 287.4 -160.514839 
L 287.4 -162.460478 
L 287.4 -164.406116 
L 287.399999 -166.351754 
L 287.399987 -168.297392 
L 287.399906 -170.24303 
L 287.399442 -172.188669 
L 287.39736 -174.134307 
L 287.389901 -176.079945 
L 287.368371 -178.025583 
L 287.317919 -179.971221 
L 287.221733 -181.91686 
L 287.072994 -183.862498 
L 286.887239 -185.808136 
L 286.699032 -187.753774 
L 286.538064 -189.699412 
L 286.405459 -191.645051 
L 286.276332 -193.590689 
L 286.128669 -195.536327 
L 285.971174 -197.481965 
L 285.842589 -199.427603 
L 285.784132 -201.373242 
L 285.814029 -203.31888 
L 285.924166 -205.264518 
L 286.088675 -207.210156 
L 286.27054 -209.155794 
L 286.433155 -211.101433 
L 286.561039 -213.047071 
L 286.668233 -214.992709 
L 286.778595 -216.938347 
L 286.900024 -218.883985 
L 287.02174 -220.829624 
L 287.129413 -222.775262 
L 287.215771 -224.7209 
L 287.280901 -226.666538 
L 287.328369 -228.612176 
L 287.361485 -230.557815 
L 287.382339 -232.503453 
L 287.393364 -234.449091 
L 287.406636 -234.449091 
L 287.406636 -234.449091 
L 287.417661 -232.503453 
L 287.438515 -230.557815 
L 287.471631 -228.612176 
L 287.519099 -226.666538 
L 287.584229 -224.7209 
L 287.670587 -222.775262 
L 287.77826 -220.829624 
L 287.899976 -218.883985 
L 288.021405 -216.938347 
L 288.131767 -214.992709 
L 288.238961 -213.047071 
L 288.366845 -211.101433 
L 288.52946 -209.155794 
L 288.711325 -207.210156 
L 288.875834 -205.264518 
L 288.985971 -203.31888 
L 289.015868 -201.373242 
L 288.957411 -199.427603 
L 288.828826 -197.481965 
L 288.671331 -195.536327 
L 288.523668 -193.590689 
L 288.394541 -191.645051 
L 288.261936 -189.699412 
L 288.100968 -187.753774 
L 287.912761 -185.808136 
L 287.727006 -183.862498 
L 287.578267 -181.91686 
L 287.482081 -179.971221 
L 287.431629 -178.025583 
L 287.410099 -176.079945 
L 287.40264 -174.134307 
L 287.400558 -172.188669 
L 287.400094 -170.24303 
L 287.400013 -168.297392 
L 287.400001 -166.351754 
L 287.4 -164.406116 
L 287.4 -162.460478 
L 287.4 -160.514839 
L 287.4 -158.569201 
L 287.4 -156.623563 
L 287.4 -154.677925 
L 287.4 -152.732287 
L 287.4 -150.786648 
L 287.4 -148.84101 
L 287.4 -146.895372 
L 287.4 -144.949734 
L 287.4 -143.004096 
L 287.4 -141.058457 
L 287.4 -139.112819 
L 287.4 -137.167181 
L 287.4 -135.221543 
L 287.4 -133.275904 
L 287.4 -131.330266 
L 287.4 -129.384628 
L 287.4 -127.43899 
L 287.4 -125.493352 
L 287.4 -123.547713 
L 287.4 -121.602075 
L 287.4 -119.656437 
L 287.4 -117.710799 
L 287.4 -115.765161 
L 287.4 -113.819522 
L 287.4 -111.873884 
L 287.4 -109.928246 
L 287.4 -107.982608 
L 287.4 -106.03697 
L 287.4 -104.091331 
L 287.4 -102.145693 
L 287.4 -100.200055 
L 287.4 -98.254417 
L 287.400004 -96.308779 
L 287.400039 -94.36314 
L 287.400333 -92.417502 
L 287.402231 -90.471864 
L 287.411779 -88.526226 
L 287.449326 -86.580588 
L 287.56528 -84.634949 
L 287.847874 -82.689311 
L 288.393639 -80.743673 
L 289.22817 -78.798035 
L 290.222 -76.852397 
L 291.088308 -74.906758 
L 291.515533 -72.96112 
L 291.378152 -71.015482 
L 290.855652 -69.069844 
L 290.332801 -67.124206 
L 290.218523 -65.178567 
L 291.078523 -63.232929 
L 294.501358 -61.287291 
L 304.708917 -59.341653 
L 329.254194 -57.396015 
L 374.579481 -55.450376 
L 434.818852 -53.504738 
L 484.903199 -51.5591 
L 494.728 -49.613462 
L 456.95576 -47.667824 
L 395.069753 -45.722185 
L 340.376344 -43.776547 
L 307.56721 -41.830909 
z
" id="m7271ad6a94" style="stroke:#484848;stroke-width:3;"/>
    </defs>
    <g clip-path="url(#pb186d4b6dc)">
     <use style="fill:#cb3335;stroke:#484848;stroke-width:3;" x="0" xlink:href="#m7271ad6a94" y="288"/>
    </g>
   </g>
   <g id="PolyCollection_2">
    <defs>
     <path d="M 825.88721 -41.830909 
L 785.55279 -41.830909 
L 752.743656 -43.776547 
L 698.050247 -45.722185 
L 636.16424 -47.667824 
L 598.392 -49.613462 
L 608.216801 -51.5591 
L 658.301148 -53.504738 
L 718.540519 -55.450376 
L 763.865806 -57.396015 
L 788.411083 -59.341653 
L 798.618642 -61.287291 
L 802.041477 -63.232929 
L 802.901477 -65.178567 
L 802.787199 -67.124206 
L 802.264348 -69.069844 
L 801.741848 -71.015482 
L 801.604467 -72.96112 
L 802.031692 -74.906758 
L 802.898 -76.852397 
L 803.89183 -78.798035 
L 804.726361 -80.743673 
L 805.272126 -82.689311 
L 805.55472 -84.634949 
L 805.670674 -86.580588 
L 805.708221 -88.526226 
L 805.717769 -90.471864 
L 805.719667 -92.417502 
L 805.719961 -94.36314 
L 805.719996 -96.308779 
L 805.72 -98.254417 
L 805.72 -100.200055 
L 805.72 -102.145693 
L 805.72 -104.091331 
L 805.72 -106.03697 
L 805.72 -107.982608 
L 805.72 -109.928246 
L 805.72 -111.873884 
L 805.72 -113.819522 
L 805.72 -115.765161 
L 805.72 -117.710799 
L 805.72 -119.656437 
L 805.72 -121.602075 
L 805.72 -123.547713 
L 805.72 -125.493352 
L 805.72 -127.43899 
L 805.72 -129.384628 
L 805.72 -131.330266 
L 805.72 -133.275904 
L 805.72 -135.221543 
L 805.72 -137.167181 
L 805.72 -139.112819 
L 805.72 -141.058457 
L 805.72 -143.004096 
L 805.72 -144.949734 
L 805.72 -146.895372 
L 805.72 -148.84101 
L 805.72 -150.786648 
L 805.72 -152.732287 
L 805.72 -154.677925 
L 805.72 -156.623563 
L 805.72 -158.569201 
L 805.72 -160.514839 
L 805.72 -162.460478 
L 805.72 -164.406116 
L 805.719999 -166.351754 
L 805.719987 -168.297392 
L 805.719906 -170.24303 
L 805.719442 -172.188669 
L 805.71736 -174.134307 
L 805.709901 -176.079945 
L 805.688371 -178.025583 
L 805.637919 -179.971221 
L 805.541733 -181.91686 
L 805.392994 -183.862498 
L 805.207239 -185.808136 
L 805.019032 -187.753774 
L 804.858064 -189.699412 
L 804.725459 -191.645051 
L 804.596332 -193.590689 
L 804.448669 -195.536327 
L 804.291174 -197.481965 
L 804.162589 -199.427603 
L 804.104132 -201.373242 
L 804.134029 -203.31888 
L 804.244166 -205.264518 
L 804.408675 -207.210156 
L 804.59054 -209.155794 
L 804.753155 -211.101433 
L 804.881039 -213.047071 
L 804.988233 -214.992709 
L 805.098595 -216.938347 
L 805.220024 -218.883985 
L 805.34174 -220.829624 
L 805.449413 -222.775262 
L 805.535771 -224.7209 
L 805.600901 -226.666538 
L 805.648369 -228.612176 
L 805.681485 -230.557815 
L 805.702339 -232.503453 
L 805.713364 -234.449091 
L 805.726636 -234.449091 
L 805.726636 -234.449091 
L 805.737661 -232.503453 
L 805.758515 -230.557815 
L 805.791631 -228.612176 
L 805.839099 -226.666538 
L 805.904229 -224.7209 
L 805.990587 -222.775262 
L 806.09826 -220.829624 
L 806.219976 -218.883985 
L 806.341405 -216.938347 
L 806.451767 -214.992709 
L 806.558961 -213.047071 
L 806.686845 -211.101433 
L 806.84946 -209.155794 
L 807.031325 -207.210156 
L 807.195834 -205.264518 
L 807.305971 -203.31888 
L 807.335868 -201.373242 
L 807.277411 -199.427603 
L 807.148826 -197.481965 
L 806.991331 -195.536327 
L 806.843668 -193.590689 
L 806.714541 -191.645051 
L 806.581936 -189.699412 
L 806.420968 -187.753774 
L 806.232761 -185.808136 
L 806.047006 -183.862498 
L 805.898267 -181.91686 
L 805.802081 -179.971221 
L 805.751629 -178.025583 
L 805.730099 -176.079945 
L 805.72264 -174.134307 
L 805.720558 -172.188669 
L 805.720094 -170.24303 
L 805.720013 -168.297392 
L 805.720001 -166.351754 
L 805.72 -164.406116 
L 805.72 -162.460478 
L 805.72 -160.514839 
L 805.72 -158.569201 
L 805.72 -156.623563 
L 805.72 -154.677925 
L 805.72 -152.732287 
L 805.72 -150.786648 
L 805.72 -148.84101 
L 805.72 -146.895372 
L 805.72 -144.949734 
L 805.72 -143.004096 
L 805.72 -141.058457 
L 805.72 -139.112819 
L 805.72 -137.167181 
L 805.72 -135.221543 
L 805.72 -133.275904 
L 805.72 -131.330266 
L 805.72 -129.384628 
L 805.72 -127.43899 
L 805.72 -125.493352 
L 805.72 -123.547713 
L 805.72 -121.602075 
L 805.72 -119.656437 
L 805.72 -117.710799 
L 805.72 -115.765161 
L 805.72 -113.819522 
L 805.72 -111.873884 
L 805.72 -109.928246 
L 805.72 -107.982608 
L 805.72 -106.03697 
L 805.72 -104.091331 
L 805.72 -102.145693 
L 805.72 -100.200055 
L 805.72 -98.254417 
L 805.720004 -96.308779 
L 805.720039 -94.36314 
L 805.720333 -92.417502 
L 805.722231 -90.471864 
L 805.731779 -88.526226 
L 805.769326 -86.580588 
L 805.88528 -84.634949 
L 806.167874 -82.689311 
L 806.713639 -80.743673 
L 807.54817 -78.798035 
L 808.542 -76.852397 
L 809.408308 -74.906758 
L 809.835533 -72.96112 
L 809.698152 -71.015482 
L 809.175652 -69.069844 
L 808.652801 -67.124206 
L 808.538523 -65.178567 
L 809.398523 -63.232929 
L 812.821358 -61.287291 
L 823.028917 -59.341653 
L 847.574194 -57.396015 
L 892.899481 -55.450376 
L 953.138852 -53.504738 
L 1003.223199 -51.5591 
L 1013.048 -49.613462 
L 975.27576 -47.667824 
L 913.389753 -45.722185 
L 858.696344 -43.776547 
L 825.88721 -41.830909 
z
" id="mbddfc1b664" style="stroke:#484848;stroke-width:3;"/>
    </defs>
    <g clip-path="url(#pb186d4b6dc)">
     <use style="fill:#477ca8;stroke:#484848;stroke-width:3;" x="0" xlink:href="#mbddfc1b664" y="288"/>
    </g>
   </g>
   <g id="line2d_6">
    <path clip-path="url(#pb186d4b6dc)" d="M 287.4 238.593347 
L 287.4 235.386338 
" style="fill:none;stroke:#484848;stroke-width:3;"/>
   </g>
   <g id="line2d_7">
    <path clip-path="url(#pb186d4b6dc)" d="M 287.4 238.468636 
L 287.4 237.235259 
" style="fill:none;stroke:#484848;stroke-width:9;"/>
   </g>
   <g id="line2d_8">
    <path clip-path="url(#pb186d4b6dc)" d="M 805.72 238.593347 
L 805.72 235.386338 
" style="fill:none;stroke:#484848;stroke-width:3;"/>
   </g>
   <g id="line2d_9">
    <path clip-path="url(#pb186d4b6dc)" d="M 805.72 238.468636 
L 805.72 237.235259 
" style="fill:none;stroke:#484848;stroke-width:9;"/>
   </g>
   <g id="patch_3">
    <path d="M 28.24 255.8 
L 28.24 43.92 
" style="fill:none;stroke:#f0f0f0;stroke-linecap:square;stroke-linejoin:miter;stroke-width:3;"/>
   </g>
   <g id="patch_4">
    <path d="M 1064.88 255.8 
L 1064.88 43.92 
" style="fill:none;stroke:#f0f0f0;stroke-linecap:square;stroke-linejoin:miter;stroke-width:3;"/>
   </g>
   <g id="patch_5">
    <path d="M 28.24 255.8 
L 1064.88 255.8 
" style="fill:none;stroke:#f0f0f0;stroke-linecap:square;stroke-linejoin:miter;stroke-width:3;"/>
   </g>
   <g id="patch_6">
    <path d="M 28.24 43.92 
L 1064.88 43.92 
" style="fill:none;stroke:#f0f0f0;stroke-linecap:square;stroke-linejoin:miter;stroke-width:3;"/>
   </g>
   <g id="PathCollection_1">
    <defs>
     <path d="M 0 3 
C 0.795609 3 1.55874 2.683901 2.12132 2.12132 
C 2.683901 1.55874 3 0.795609 3 0 
C 3 -0.795609 2.683901 -1.55874 2.12132 -2.12132 
C 1.55874 -2.683901 0.795609 -3 0 -3 
C -0.795609 -3 -1.55874 -2.683901 -2.12132 -2.12132 
C -2.683901 -1.55874 -3 -0.795609 -3 0 
C -3 0.795609 -2.683901 1.55874 -2.12132 2.12132 
C -1.55874 2.683901 -0.795609 3 0 3 
z
" id="m50c3b9e30d" style="stroke:#484848;stroke-width:0.5;"/>
    </defs>
    <g clip-path="url(#pb186d4b6dc)">
     <use style="fill:#ffffff;stroke:#484848;stroke-width:0.5;" x="287.4" xlink:href="#m50c3b9e30d" y="237.951487"/>
    </g>
   </g>
   <g id="PathCollection_2">
    <g clip-path="url(#pb186d4b6dc)">
     <use style="fill:#ffffff;stroke:#484848;stroke-width:0.5;" x="805.72" xlink:href="#m50c3b9e30d" y="237.951487"/>
    </g>
   </g>
  </g>
  <g id="text_8">
   <!-- Violin Plot of all Continuous Variables -->
   <g style="fill:#262626;" transform="translate(416.035547 16.496719)scale(0.15 -0.15)">
    <defs>
     <path d="M 1803 0 
L 28 4581 
L 684 4581 
L 1875 1253 
Q 2019 853 2116 503 
Q 2222 878 2363 1253 
L 3600 4581 
L 4219 4581 
L 2425 0 
L 1803 0 
z
" id="ArialMT-56" transform="scale(0.015625)"/>
     <path d="M 213 1659 
Q 213 2581 725 3025 
Q 1153 3394 1769 3394 
Q 2453 3394 2887 2945 
Q 3322 2497 3322 1706 
Q 3322 1066 3130 698 
Q 2938 331 2570 128 
Q 2203 -75 1769 -75 
Q 1072 -75 642 372 
Q 213 819 213 1659 
z
M 791 1659 
Q 791 1022 1069 705 
Q 1347 388 1769 388 
Q 2188 388 2466 706 
Q 2744 1025 2744 1678 
Q 2744 2294 2464 2611 
Q 2184 2928 1769 2928 
Q 1347 2928 1069 2612 
Q 791 2297 791 1659 
z
" id="ArialMT-6f" transform="scale(0.015625)"/>
     <path d="M 409 0 
L 409 4581 
L 972 4581 
L 972 0 
L 409 0 
z
" id="ArialMT-6c" transform="scale(0.015625)"/>
     <path d="M 494 0 
L 494 4581 
L 2222 4581 
Q 2678 4581 2919 4538 
Q 3256 4481 3484 4323 
Q 3713 4166 3852 3881 
Q 3991 3597 3991 3256 
Q 3991 2672 3619 2267 
Q 3247 1863 2275 1863 
L 1100 1863 
L 1100 0 
L 494 0 
z
M 1100 2403 
L 2284 2403 
Q 2872 2403 3119 2622 
Q 3366 2841 3366 3238 
Q 3366 3525 3220 3729 
Q 3075 3934 2838 4000 
Q 2684 4041 2272 4041 
L 1100 4041 
L 1100 2403 
z
" id="ArialMT-50" transform="scale(0.015625)"/>
     <path d="M 556 0 
L 556 2881 
L 59 2881 
L 59 3319 
L 556 3319 
L 556 3672 
Q 556 4006 616 4169 
Q 697 4388 901 4523 
Q 1106 4659 1475 4659 
Q 1713 4659 2000 4603 
L 1916 4113 
Q 1741 4144 1584 4144 
Q 1328 4144 1222 4034 
Q 1116 3925 1116 3625 
L 1116 3319 
L 1763 3319 
L 1763 2881 
L 1116 2881 
L 1116 0 
L 556 0 
z
" id="ArialMT-66" transform="scale(0.015625)"/>
     <path d="M 2588 409 
Q 2275 144 1986 34 
Q 1697 -75 1366 -75 
Q 819 -75 525 192 
Q 231 459 231 875 
Q 231 1119 342 1320 
Q 453 1522 633 1644 
Q 813 1766 1038 1828 
Q 1203 1872 1538 1913 
Q 2219 1994 2541 2106 
Q 2544 2222 2544 2253 
Q 2544 2597 2384 2738 
Q 2169 2928 1744 2928 
Q 1347 2928 1158 2789 
Q 969 2650 878 2297 
L 328 2372 
Q 403 2725 575 2942 
Q 747 3159 1072 3276 
Q 1397 3394 1825 3394 
Q 2250 3394 2515 3294 
Q 2781 3194 2906 3042 
Q 3031 2891 3081 2659 
Q 3109 2516 3109 2141 
L 3109 1391 
Q 3109 606 3145 398 
Q 3181 191 3288 0 
L 2700 0 
Q 2613 175 2588 409 
z
M 2541 1666 
Q 2234 1541 1622 1453 
Q 1275 1403 1131 1340 
Q 988 1278 909 1158 
Q 831 1038 831 891 
Q 831 666 1001 516 
Q 1172 366 1500 366 
Q 1825 366 2078 508 
Q 2331 650 2450 897 
Q 2541 1088 2541 1459 
L 2541 1666 
z
" id="ArialMT-61" transform="scale(0.015625)"/>
     <path d="M 3763 1606 
L 4369 1453 
Q 4178 706 3683 314 
Q 3188 -78 2472 -78 
Q 1731 -78 1267 223 
Q 803 525 561 1097 
Q 319 1669 319 2325 
Q 319 3041 592 3573 
Q 866 4106 1370 4382 
Q 1875 4659 2481 4659 
Q 3169 4659 3637 4309 
Q 4106 3959 4291 3325 
L 3694 3184 
Q 3534 3684 3231 3912 
Q 2928 4141 2469 4141 
Q 1941 4141 1586 3887 
Q 1231 3634 1087 3207 
Q 944 2781 944 2328 
Q 944 1744 1114 1308 
Q 1284 872 1643 656 
Q 2003 441 2422 441 
Q 2931 441 3284 734 
Q 3638 1028 3763 1606 
z
" id="ArialMT-43" transform="scale(0.015625)"/>
     <path d="M 2597 0 
L 2597 488 
Q 2209 -75 1544 -75 
Q 1250 -75 995 37 
Q 741 150 617 320 
Q 494 491 444 738 
Q 409 903 409 1263 
L 409 3319 
L 972 3319 
L 972 1478 
Q 972 1038 1006 884 
Q 1059 663 1231 536 
Q 1403 409 1656 409 
Q 1909 409 2131 539 
Q 2353 669 2445 892 
Q 2538 1116 2538 1541 
L 2538 3319 
L 3100 3319 
L 3100 0 
L 2597 0 
z
" id="ArialMT-75" transform="scale(0.015625)"/>
     <path d="M 197 991 
L 753 1078 
Q 800 744 1014 566 
Q 1228 388 1613 388 
Q 2000 388 2187 545 
Q 2375 703 2375 916 
Q 2375 1106 2209 1216 
Q 2094 1291 1634 1406 
Q 1016 1563 777 1677 
Q 538 1791 414 1992 
Q 291 2194 291 2438 
Q 291 2659 392 2848 
Q 494 3038 669 3163 
Q 800 3259 1026 3326 
Q 1253 3394 1513 3394 
Q 1903 3394 2198 3281 
Q 2494 3169 2634 2976 
Q 2775 2784 2828 2463 
L 2278 2388 
Q 2241 2644 2061 2787 
Q 1881 2931 1553 2931 
Q 1166 2931 1000 2803 
Q 834 2675 834 2503 
Q 834 2394 903 2306 
Q 972 2216 1119 2156 
Q 1203 2125 1616 2013 
Q 2213 1853 2448 1751 
Q 2684 1650 2818 1456 
Q 2953 1263 2953 975 
Q 2953 694 2789 445 
Q 2625 197 2315 61 
Q 2006 -75 1616 -75 
Q 969 -75 630 194 
Q 291 463 197 991 
z
" id="ArialMT-73" transform="scale(0.015625)"/>
     <path d="M 416 0 
L 416 3319 
L 922 3319 
L 922 2816 
Q 1116 3169 1280 3281 
Q 1444 3394 1641 3394 
Q 1925 3394 2219 3213 
L 2025 2691 
Q 1819 2813 1613 2813 
Q 1428 2813 1281 2702 
Q 1134 2591 1072 2394 
Q 978 2094 978 1738 
L 978 0 
L 416 0 
z
" id="ArialMT-72" transform="scale(0.015625)"/>
     <path d="M 941 0 
L 419 0 
L 419 4581 
L 981 4581 
L 981 2947 
Q 1338 3394 1891 3394 
Q 2197 3394 2470 3270 
Q 2744 3147 2920 2923 
Q 3097 2700 3197 2384 
Q 3297 2069 3297 1709 
Q 3297 856 2875 390 
Q 2453 -75 1863 -75 
Q 1275 -75 941 416 
L 941 0 
z
M 934 1684 
Q 934 1088 1097 822 
Q 1363 388 1816 388 
Q 2184 388 2453 708 
Q 2722 1028 2722 1663 
Q 2722 2313 2464 2622 
Q 2206 2931 1841 2931 
Q 1472 2931 1203 2611 
Q 934 2291 934 1684 
z
" id="ArialMT-62" transform="scale(0.015625)"/>
    </defs>
    <use xlink:href="#ArialMT-56"/>
    <use x="64.949219" xlink:href="#ArialMT-69"/>
    <use x="87.166016" xlink:href="#ArialMT-6f"/>
    <use x="142.78125" xlink:href="#ArialMT-6c"/>
    <use x="164.998047" xlink:href="#ArialMT-69"/>
    <use x="187.214844" xlink:href="#ArialMT-6e"/>
    <use x="242.830078" xlink:href="#ArialMT-20"/>
    <use x="270.613281" xlink:href="#ArialMT-50"/>
    <use x="337.3125" xlink:href="#ArialMT-6c"/>
    <use x="359.529297" xlink:href="#ArialMT-6f"/>
    <use x="415.144531" xlink:href="#ArialMT-74"/>
    <use x="442.927734" xlink:href="#ArialMT-20"/>
    <use x="470.710938" xlink:href="#ArialMT-6f"/>
    <use x="526.326172" xlink:href="#ArialMT-66"/>
    <use x="554.109375" xlink:href="#ArialMT-20"/>
    <use x="581.892578" xlink:href="#ArialMT-61"/>
    <use x="637.507812" xlink:href="#ArialMT-6c"/>
    <use x="659.724609" xlink:href="#ArialMT-6c"/>
    <use x="681.941406" xlink:href="#ArialMT-20"/>
    <use x="709.724609" xlink:href="#ArialMT-43"/>
    <use x="781.941406" xlink:href="#ArialMT-6f"/>
    <use x="837.556641" xlink:href="#ArialMT-6e"/>
    <use x="893.171875" xlink:href="#ArialMT-74"/>
    <use x="920.955078" xlink:href="#ArialMT-69"/>
    <use x="943.171875" xlink:href="#ArialMT-6e"/>
    <use x="998.787109" xlink:href="#ArialMT-75"/>
    <use x="1054.402344" xlink:href="#ArialMT-6f"/>
    <use x="1110.017578" xlink:href="#ArialMT-75"/>
    <use x="1165.632812" xlink:href="#ArialMT-73"/>
    <use x="1215.632812" xlink:href="#ArialMT-20"/>
    <use x="1243.416016" xlink:href="#ArialMT-56"/>
    <use x="1302.740234" xlink:href="#ArialMT-61"/>
    <use x="1358.355469" xlink:href="#ArialMT-72"/>
    <use x="1391.65625" xlink:href="#ArialMT-69"/>
    <use x="1413.873047" xlink:href="#ArialMT-61"/>
    <use x="1469.488281" xlink:href="#ArialMT-62"/>
    <use x="1525.103516" xlink:href="#ArialMT-6c"/>
    <use x="1547.320312" xlink:href="#ArialMT-65"/>
    <use x="1602.935547" xlink:href="#ArialMT-73"/>
   </g>
  </g>
 </g>
 <defs>
  <clipPath id="pb186d4b6dc">
   <rect height="211.88" width="1036.64" x="28.24" y="43.92"/>
  </clipPath>
 </defs>
</svg>
